<svg width="240" height="189" fill="none" xmlns="http://www.w3.org/2000/svg"><path d="M229.046 24.817H11.26v139.48h217.786V24.817z" fill="#E6E6E6"></path><path d="M222.812 42.31H17.481v113.734h205.331V42.31z" fill="#fff"></path><path d="M228.949 24.692H11.162v9.253H228.95v-9.253z" fill="#CCCBFF"></path><path d="M18.034 31.137a1.715 1.715 0 100-3.43 1.715 1.715 0 000 3.43zM24.547 31.137a1.715 1.715 0 100-3.43 1.715 1.715 0 000 3.43zM31.06 31.137a1.715 1.715 0 100-3.43 1.715 1.715 0 000 3.43z" fill="#fff"></path><path d="M88.903 54.111h-52.76v90.133h52.76V54.111z" fill="#E6E6E6"></path><path d="M141.975 54.111H98.008v24.81h43.967v-24.81z" fill="#CCCBFF"></path><path d="M141.975 85.83H98.008v26.694h43.967V85.83zM141.975 119.434H98.008v24.81h43.967v-24.81zM204.157 54.111h-52.761v39.28h52.761V54.11zM204.157 104.963h-52.761v39.28h52.761v-39.28z" fill="#E6E6E6"></path><path d="M153.083 38.745a45.674 45.674 0 00-49.488-6.137 45.67 45.67 0 1052.077 73.585l56.021 47.27a4.21 4.21 0 005.931-.497 4.208 4.208 0 00-.497-5.931l-.006-.005L161.1 99.76a45.673 45.673 0 00-8.017-61.015zm-3.612 56.463a34.218 34.218 0 01-60.245-19.177 34.217 34.217 0 0156.161-29.04 34.209 34.209 0 0110.538 36.53 34.214 34.214 0 01-6.454 11.687z" fill="#7F7F8B"></path><path opacity=".3" d="M101.258 99.294a34.217 34.217 0 01-5.807-45.998 34.217 34.217 0 1052.126 43.984 34.217 34.217 0 01-46.319 2.014z" fill="#7F7F8B"></path></svg>