<?xml version="1.0" encoding="UTF-8"?><svg viewBox="0 0 1030 791" xmlns="http://www.w3.org/2000/svg"><g fill="none"><path d="M332.42 172.33l-19.69 7.62-28.79 11.13c-1.09-2-2.69-4.78-4.67-8-6.82-11.3-18.11-28.88-28.15-44.33-11.31-17.45-21.06-32.12-21.06-32.12l7.06-2 57.59-16.7 37.71 84.4z" fill="#E6ECF8"/><path d="M332.42 172.33l-19.69 7.62a148.53 148.53 0 01-33.46 3.08c-6.82-11.3-18.11-28.88-28.15-44.33l-14-34.14 57.59-16.7 37.71 84.47z" fill="#000" opacity=".1"/><path d="M347.06 167.63s-30.6 18.1-76.29 14l-36.42-88.79 17.46-3 60.34-10.36 34.22 86.42.69 1.73z" fill="#6C63FF"/><path d="M346.39 165.87a144 144 0 01-23.92-.68c-9.08-1.07-18.21-3.26-26-7.3a78.71 78.71 0 01-17-11.43c-12.69-11.41-20.54-27.74-27.59-56.65l60.34-10.36 34.17 86.42z" fill="#000" opacity=".1"/><path d="M368.84 160.91s-22.57 4.42-45.51 1.7c-9.08-1.07-18.21-3.27-26-7.3a79.32 79.32 0 01-17-11.43c-15.7-14.13-24-35.78-32.54-79.51 0 0 37.49 9 74.55-10.78-.05.04 12.45 78.04 46.5 107.32z" fill="#F9FAFB"/><path d="M323.33 162.63c-9.08-1.07-18.21-3.27-26-7.3a79.32 79.32 0 01-17-11.43c13.37-1.09 15.29-8.4 15.29-8.4 9.87 15.71 27.71 27.13 27.71 27.13z" fill="#000" opacity=".1"/><path d="M267.13 80.42s30.49-1.72 39-8.29l1.3 4.14s-20.15 8.89-40.3 9v-4.85zM267.13 100.89s29.52-1.61 51.82-12.39l.76 1.73s-17.71 10.33-52.58 13v-2.34zM269.5 108.89s29.53-1.62 51.83-12.39l.75 1.72s-17.7 10.33-52.58 13v-2.33zM271.88 116.88s29.52-1.61 51.82-12.39l.76 1.73s-17.71 10.33-52.58 13v-2.34zM274.25 124.88s29.53-1.62 51.83-12.39l.75 1.72s-17.7 10.33-52.58 13v-2.33zM276.63 132.87s29.52-1.61 51.82-12.39l.76 1.73s-17.71 10.33-52.58 13v-2.34z" fill="#6C63FF" opacity=".3"/><g><path d="M918.82 537.72l-46.9 65.24a5.48 5.48 0 001.23 7.62l100.12 72.57a5.47 5.47 0 007.62-1.2l47.73-65.41-109.8-78.82z" fill="#9C9CA1"/><path d="M918.82 537.72l-46.9 65.24a5.48 5.48 0 001.23 7.62l100.12 72.57a5.47 5.47 0 007.62-1.2l47.73-65.41-109.8-78.82z" fill="#000" opacity=".1"/><path d="M918.64 536.63l-46.9 65.24a5.47 5.47 0 001.23 7.61l100.09 72.56a5.47 5.47 0 007.62-1.21l47.73-65.4-109.77-78.8z" fill="#9C9CA1"/><path d="M918.06 496.23l1.24 39.88 109.8 78.82-1.04-40.58a5.81 5.81 0 00-2.46-4.61l-105.69-74.5a1.16 1.16 0 00-1.85.99z" fill="#464A5F"/><path d="M918.06 496.23l1.24 39.88 109.8 78.82-1.04-40.58a5.81 5.81 0 00-2.46-4.61l-105.69-74.5a1.16 1.16 0 00-1.85.99z" fill="#000" opacity=".1"/><path d="M917.4 496.72l1.24 39.91 109.8 78.82-1.07-40.58a5.82 5.82 0 00-2.47-4.61l-105.68-74.5a1.15 1.15 0 00-1.82.96z" fill="#464A5F"/><path d="M921.83 554.51l-2.84 4a1.1 1.1 0 00.25 1.52l4 3a1.09 1.09 0 001.52-.22l2.87-3.76a1.09 1.09 0 00-.19-1.53l-4.08-3.22a1.09 1.09 0 00-1.53.21zM929.23 559.83l-2.84 4a1.1 1.1 0 00.25 1.52l4 3a1.09 1.09 0 001.52-.22l2.87-3.76a1.09 1.09 0 00-.19-1.53l-4.04-3.21a1.09 1.09 0 00-1.57.2zM937 565.41l-2.84 4a1.1 1.1 0 00.25 1.52l4 3a1.09 1.09 0 001.52-.22l2.87-3.76a1.1 1.1 0 00-.19-1.53l-4.08-3.21a1.09 1.09 0 00-1.53.2zM944.86 571.06l-2.84 4a1.1 1.1 0 00.24 1.52l4 3a1.09 1.09 0 001.52-.22l2.87-3.76a1.1 1.1 0 00-.19-1.53l-4.08-3.21a1.09 1.09 0 00-1.52.2zM952.72 576.71l-2.84 4a1.1 1.1 0 00.24 1.52l4 3a1.1 1.1 0 001.53-.22l2.87-3.76a1.1 1.1 0 00-.19-1.53l-4.08-3.21a1.09 1.09 0 00-1.53.2zM960.93 581.86l-3.52 5a.52.52 0 00.11.71l5 3.66a.51.51 0 00.71-.1l3.57-4.68a.51.51 0 00-.09-.71l-5-4a.52.52 0 00-.78.12zM968.79 587.51l-3.52 5a.52.52 0 00.11.71l5 3.66a.51.51 0 00.71-.1l3.57-4.68a.51.51 0 00-.09-.71l-5-4a.52.52 0 00-.78.12zM975.75 592.51l-3.53 5a.51.51 0 00.12.71l5 3.66a.52.52 0 00.72-.1l3.57-4.67a.52.52 0 00-.09-.72l-5-4a.51.51 0 00-.79.12zM983.54 598.11l-3.52 5a.5.5 0 00.11.71l5 3.66a.52.52 0 00.72-.1l3.57-4.67a.52.52 0 00-.09-.72l-5-3.95a.51.51 0 00-.79.07zM991.06 603.54l-3.52 5a.51.51 0 00.12.71l5 3.67a.51.51 0 00.71-.11l3.57-4.67a.52.52 0 00-.09-.72l-5-3.95a.52.52 0 00-.79.07zM998.63 608.96l-3.52 5a.52.52 0 00.11.71l5 3.66a.51.51 0 00.71-.1l3.57-4.68a.51.51 0 00-.09-.71l-5-3.95a.51.51 0 00-.78.07zM1006.18 614.39l-3.53 5a.51.51 0 00.12.71l5 3.67a.52.52 0 00.72-.11l3.57-4.67a.52.52 0 00-.09-.72l-5-4a.51.51 0 00-.79.12zM916.66 561.69l-2.83 4a1.1 1.1 0 00.24 1.52l4 3a1.11 1.11 0 001.53-.22l2.87-3.76a1.1 1.1 0 00-.19-1.53l-4.08-3.22a1.11 1.11 0 00-1.54.21zM905.38 577.39l-2.83 4a1.1 1.1 0 00.24 1.52l4 3a1.11 1.11 0 001.53-.21l2.87-3.76a1.1 1.1 0 00-.19-1.53l-4.08-3.22a1.1 1.1 0 00-1.54.2zM924.06 567.01l-2.84 4a1.1 1.1 0 00.24 1.52l4 3a1.11 1.11 0 001.53-.22l2.87-3.76a1.1 1.1 0 00-.19-1.53l-4.08-3.22a1.1 1.1 0 00-1.53.21zM931.83 572.63l-2.83 4a1.1 1.1 0 00.24 1.52l4 3a1.11 1.11 0 001.53-.21l2.87-3.76a1.1 1.1 0 00-.19-1.53l-4.08-3.22a1.1 1.1 0 00-1.54.2zM939.69 578.25l-2.83 4a1.1 1.1 0 00.24 1.52l4 3a1.11 1.11 0 001.53-.21l2.87-3.77a1.09 1.09 0 00-.19-1.52l-4.08-3.22a1.1 1.1 0 00-1.54.2zM912.96 582.46l-2.83 4a1.1 1.1 0 00.24 1.52l4 3a1.11 1.11 0 001.53-.21l2.87-3.77a1.09 1.09 0 00-.19-1.52l-4.08-3.22a1.1 1.1 0 00-1.54.2zM920.73 588.04l-2.83 4a1.1 1.1 0 00.24 1.52l4 3a1.11 1.11 0 001.53-.22l2.87-3.76a1.1 1.1 0 00-.19-1.53l-4.08-3.22a1.11 1.11 0 00-1.54.21zM928.59 593.69l-2.83 4a1.1 1.1 0 00.24 1.52l4 3a1.11 1.11 0 001.53-.22l2.87-3.76a1.1 1.1 0 00-.2-1.53l-4.07-3.22a1.1 1.1 0 00-1.54.21zM947.55 583.9l-2.83 4a1.1 1.1 0 00.24 1.52l4 3a1.11 1.11 0 001.53-.21l2.87-3.77a1.09 1.09 0 00-.19-1.52l-4.04-3.29a1.1 1.1 0 00-1.58.27zM955.41 589.54l-2.83 4a1.1 1.1 0 00.24 1.52l4 3a1.11 1.11 0 001.53-.21l2.87-3.77a1.09 1.09 0 00-.19-1.52l-4.08-3.22a1.1 1.1 0 00-1.54.2zM963.63 594.69l-3.53 5a.51.51 0 00.12.71l5 3.66a.52.52 0 00.72-.1l3.57-4.67a.52.52 0 00-.09-.72l-5-4a.51.51 0 00-.79.12zM970.58 599.69l-3.52 5a.51.51 0 00.12.71l5 3.66a.5.5 0 00.71-.1l3.57-4.67a.52.52 0 00-.09-.72l-5-4a.52.52 0 00-.79.12zM978.38 605.29l-3.53 5a.51.51 0 00.12.71l5 3.66a.5.5 0 00.71-.1l3.57-4.67a.52.52 0 00-.09-.72l-5-3.95a.51.51 0 00-.78.07zM985.92 610.72l-3.52 5a.52.52 0 00.11.71l5 3.66a.51.51 0 00.71-.1l3.57-4.68a.51.51 0 00-.09-.71l-5-4a.52.52 0 00-.78.12zM926.47 580.06l-2.84 4a1.1 1.1 0 00.24 1.52l4 3a1.1 1.1 0 001.53-.22l2.87-3.76a1.1 1.1 0 00-.19-1.53l-4.02-3.23a1.09 1.09 0 00-1.59.22zM934.33 585.71l-2.84 4a1.1 1.1 0 00.24 1.52l4 3a1.1 1.1 0 001.53-.22l2.87-3.76a1.1 1.1 0 00-.19-1.53l-4.08-3.21a1.09 1.09 0 00-1.53.2zM942.18 591.36l-2.83 4a1.1 1.1 0 00.24 1.52l4 3a1.1 1.1 0 001.53-.22l2.87-3.76a1.11 1.11 0 00-.19-1.53l-4.08-3.21a1.1 1.1 0 00-1.54.2zM950.06 597.01l-2.83 4a1.1 1.1 0 00.24 1.52l4 3a1.1 1.1 0 001.53-.22l2.87-3.76a1.1 1.1 0 00-.19-1.53l-4.08-3.21a1.1 1.1 0 00-1.54.2zM958.26 602.16l-3.52 5a.5.5 0 00.11.71l5 3.66a.52.52 0 00.72-.1l3.57-4.68a.51.51 0 00-.09-.71l-5-3.95a.51.51 0 00-.79.07zM965.22 607.16l-3.53 5a.51.51 0 00.12.71l5 3.66a.52.52 0 00.72-.1l3.56-4.67a.5.5 0 00-.09-.72l-5-3.95a.5.5 0 00-.78.07zM973.06 612.76l-3.53 5a.51.51 0 00.12.71l5 3.66a.52.52 0 00.72-.1l3.57-4.67a.52.52 0 00-.09-.72l-5-4a.5.5 0 00-.79.12zM980.55 618.19l-3.52 5a.53.53 0 00.11.72l5 3.66a.52.52 0 00.71-.1l3.57-4.68a.51.51 0 00-.09-.71l-5-4a.52.52 0 00-.78.11zM993.47 616.14l-3.53 5a.51.51 0 00.12.71l5 3.66a.51.51 0 00.72-.1l3.57-4.67a.52.52 0 00-.09-.72l-5-3.95a.52.52 0 00-.79.07zM1001.06 621.57l-3.52 5a.53.53 0 00.11.72l5 3.66a.52.52 0 00.71-.1l3.57-4.68a.51.51 0 00-.09-.71l-5-4a.52.52 0 00-.78.11zM967.17 620.89l-3.32 4.67a.68.68 0 00.16.95l4.68 3.46a.68.68 0 001-.13l3.36-4.4a.68.68 0 00-.12-1l-4.73-3.74a.69.69 0 00-1.03.19zM974.72 626.31l-3.32 4.68a.68.68 0 00.15.95l4.69 3.46a.7.7 0 001-.14l3.36-4.4a.69.69 0 00-.12-1l-4.74-3.73a.68.68 0 00-1.02.18zM982.26 631.73l-3.32 4.68a.69.69 0 00.16 1l4.69 3.46a.68.68 0 001-.13l3.36-4.41a.67.67 0 00-.12-.95l-4.73-3.74a.7.7 0 00-1.04.09zM989.91 637.01l-3.52 5a.52.52 0 00.12.72l5 3.66a.51.51 0 00.71-.1l3.57-4.68a.51.51 0 00-.09-.71l-5-4a.52.52 0 00-.79.11zM911.06 569.11l-3 4.29a1.1 1.1 0 00.26 1.53l11.74 8.36a1.09 1.09 0 001.5-.23l3.2-4.17a1.09 1.09 0 00-.24-1.56l-11.93-8.48a1.09 1.09 0 00-1.53.26zM987.95 623.69l-3.69 5.25a.51.51 0 00.12.71l12.69 9a.52.52 0 00.71-.11l3.9-5.1a.51.51 0 00-.11-.73l-12.9-9.17a.51.51 0 00-.72.15zM936.59 598.89l-3.53 4.88a.53.53 0 00.11.72l27.5 20.28a.52.52 0 00.71-.1l3.88-5.09a.51.51 0 00-.11-.73l-27.82-20.07a.51.51 0 00-.74.11z" fill="#000"/><path d="M921.71 553.77l-2.84 4a1.1 1.1 0 00.24 1.52l4 3a1.1 1.1 0 001.53-.21l2.87-3.76a1.09 1.09 0 00-.19-1.53l-4.08-3.22a1.09 1.09 0 00-1.53.2zM929.11 559.09l-2.84 4a1.1 1.1 0 00.24 1.52l4 3a1.09 1.09 0 001.52-.21l2.87-3.76a1.09 1.09 0 00-.19-1.53l-4.08-3.22a1.09 1.09 0 00-1.52.2zM936.88 564.63l-2.82 4a1.1 1.1 0 00.24 1.52l4 3a1.11 1.11 0 001.53-.22l2.87-3.76a1.09 1.09 0 00-.19-1.53l-4.08-3.22a1.1 1.1 0 00-1.55.21zM944.74 570.32l-2.84 4a1.1 1.1 0 00.24 1.52l4 3a1.11 1.11 0 001.53-.22l2.87-3.76a1.09 1.09 0 00-.19-1.53l-4.08-3.22a1.09 1.09 0 00-1.53.21zM952.59 575.97l-2.83 4a1.1 1.1 0 00.24 1.52l4 3a1.11 1.11 0 001.53-.22l2.87-3.76a1.1 1.1 0 00-.19-1.53l-4.08-3.22a1.11 1.11 0 00-1.54.21zM960.81 581.12l-3.52 5a.51.51 0 00.11.71l5 3.66a.52.52 0 00.72-.1l3.57-4.68a.51.51 0 00-.09-.71l-5-4a.52.52 0 00-.79.12zM968.67 586.77l-3.52 5a.51.51 0 00.11.72l5 3.66a.53.53 0 00.72-.1l3.57-4.68a.51.51 0 00-.09-.71l-5-4a.52.52 0 00-.79.11zM975.63 591.77l-3.53 5a.51.51 0 00.12.71l5 3.66a.52.52 0 00.72-.1l3.57-4.68a.51.51 0 00-.09-.71l-5-4a.51.51 0 00-.79.12zM983.42 597.37l-3.53 5a.51.51 0 00.12.71l5 3.66a.52.52 0 00.72-.1l3.57-4.68a.51.51 0 00-.09-.71l-5-4a.52.52 0 00-.79.12zM990.96 602.79l-3.52 5a.52.52 0 00.11.71l5 3.66a.5.5 0 00.71-.1l3.57-4.67a.52.52 0 00-.09-.72l-5-3.95a.52.52 0 00-.78.07zM998.51 608.22l-3.52 5a.5.5 0 00.11.71l5 3.66a.52.52 0 00.72-.1l3.57-4.68a.51.51 0 00-.09-.71l-5-4a.52.52 0 00-.79.12zM1006.06 613.63l-3.53 5a.51.51 0 00.12.71l5 3.66a.51.51 0 00.71-.1l3.57-4.67a.51.51 0 00-.09-.72l-5-3.95a.51.51 0 00-.78.07zM916.54 560.95l-2.83 4a1.1 1.1 0 00.24 1.52l4 3a1.11 1.11 0 001.53-.22l2.87-3.76a1.1 1.1 0 00-.19-1.53l-4.08-3.22a1.11 1.11 0 00-1.54.21zM905.26 576.63l-2.84 4a1.11 1.11 0 00.25 1.52l4 3a1.09 1.09 0 001.52-.21l2.88-3.77a1.09 1.09 0 00-.2-1.52l-4.07-3.22a1.1 1.1 0 00-1.54.2zM923.94 566.27l-2.83 4a1.1 1.1 0 00.24 1.52l4 3a1.11 1.11 0 001.53-.22l2.87-3.76a1.1 1.1 0 00-.19-1.53l-4.08-3.22a1.11 1.11 0 00-1.54.21zM931.71 571.85l-2.83 4a1.1 1.1 0 00.24 1.52l4 3a1.1 1.1 0 001.53-.22l2.87-3.76a1.11 1.11 0 00-.19-1.53l-4.04-3.23a1.1 1.1 0 00-1.58.22zM939.57 577.5l-2.83 4a1.1 1.1 0 00.24 1.52l4 3a1.1 1.1 0 001.53-.22l2.87-3.76a1.11 1.11 0 00-.19-1.53l-4.08-3.21a1.1 1.1 0 00-1.54.2zM912.84 581.71l-2.83 4a1.1 1.1 0 00.24 1.52l4 3a1.1 1.1 0 001.53-.22l2.87-3.76a1.1 1.1 0 00-.2-1.53l-4.07-3.21a1.1 1.1 0 00-1.54.2zM920.61 587.3l-2.83 4a1.09 1.09 0 00.24 1.51l4 3a1.1 1.1 0 001.52-.22l2.88-3.76a1.1 1.1 0 00-.2-1.53l-4.07-3.22a1.1 1.1 0 00-1.54.22zM928.47 592.95l-2.84 4a1.1 1.1 0 00.25 1.51l4 3a1.1 1.1 0 001.52-.22l2.88-3.76a1.1 1.1 0 00-.2-1.53l-4.02-3.23a1.1 1.1 0 00-1.59.23zM947.43 583.15l-2.83 4a1.1 1.1 0 00.24 1.52l4 3a1.1 1.1 0 001.53-.22l2.87-3.76a1.1 1.1 0 00-.2-1.53l-3.98-3.23a1.1 1.1 0 00-1.63.22zM955.29 588.8l-2.83 4a1.1 1.1 0 00.24 1.52l4 3a1.09 1.09 0 001.52-.22l2.88-3.76a1.1 1.1 0 00-.2-1.53l-4.07-3.21a1.1 1.1 0 00-1.54.2zM963.51 593.95l-3.53 5a.51.51 0 00.12.71l5 3.66a.52.52 0 00.72-.1l3.57-4.68a.5.5 0 00-.1-.71l-5-3.95a.5.5 0 00-.78.07zM970.46 598.95l-3.52 5a.52.52 0 00.11.71l5 3.66a.51.51 0 00.71-.1l3.57-4.67a.52.52 0 00-.09-.72l-5-3.95a.51.51 0 00-.78.07zM978.25 604.55l-3.52 5a.52.52 0 00.11.71l5 3.66a.51.51 0 00.71-.1l3.57-4.67a.52.52 0 00-.09-.72l-5-3.95a.51.51 0 00-.78.07zM985.8 609.98l-3.52 5a.51.51 0 00.11.71l5 3.67a.52.52 0 00.71-.1l3.57-4.68a.52.52 0 00-.09-.72l-5-3.95a.52.52 0 00-.78.07zM926.34 579.32l-2.83 4a1.1 1.1 0 00.24 1.52l4 3a1.1 1.1 0 001.53-.22l2.87-3.76a1.1 1.1 0 00-.19-1.53l-4.08-3.21a1.1 1.1 0 00-1.54.2zM934.2 584.97l-2.83 4a1.1 1.1 0 00.24 1.52l4 3a1.1 1.1 0 001.53-.22l2.87-3.76a1.1 1.1 0 00-.19-1.53l-4.08-3.21a1.1 1.1 0 00-1.54.2zM942.06 590.63l-2.83 4a1.1 1.1 0 00.24 1.52l4 3a1.11 1.11 0 001.53-.22l2.87-3.76a1.1 1.1 0 00-.19-1.53l-4.08-3.22a1.11 1.11 0 00-1.54.21zM949.92 596.27l-2.83 4a1.1 1.1 0 00.24 1.52l4 3a1.11 1.11 0 001.53-.22l2.87-3.76a1.1 1.1 0 00-.19-1.53l-4.08-3.22a1.11 1.11 0 00-1.54.21zM958.14 601.42l-3.53 5a.51.51 0 00.12.71l5 3.66a.52.52 0 00.72-.1l3.57-4.68a.51.51 0 00-.09-.71l-5-4a.52.52 0 00-.79.12zM965.06 606.42l-3.52 5a.51.51 0 00.12.71l5 3.66a.51.51 0 00.71-.1l3.57-4.68a.51.51 0 00-.09-.71l-5-4a.52.52 0 00-.79.12zM972.89 612.02l-3.53 5a.51.51 0 00.12.71l5 3.66a.51.51 0 00.71-.1l3.57-4.68a.5.5 0 00-.09-.71l-5-4a.51.51 0 00-.78.12zM980.43 617.45l-3.52 5a.52.52 0 00.11.71l5 3.67a.51.51 0 00.71-.11l3.57-4.67a.52.52 0 00-.09-.72l-5-4a.52.52 0 00-.78.12zM993.35 615.4l-3.53 5a.51.51 0 00.12.71l5 3.66a.52.52 0 00.72-.1l3.57-4.67a.52.52 0 00-.09-.72l-5-3.95a.5.5 0 00-.79.07zM1000.89 620.83l-3.52 5a.52.52 0 00.11.71l5 3.67a.51.51 0 00.71-.11l3.57-4.67a.52.52 0 00-.09-.72l-5-4a.52.52 0 00-.78.12zM967.06 620.14l-3.32 4.68a.68.68 0 00.15.95l4.69 3.46a.7.7 0 001-.14l3.36-4.4a.69.69 0 00-.12-1l-4.73-3.73a.7.7 0 00-1.03.18zM974.59 625.57l-3.31 4.67a.7.7 0 00.15 1l4.69 3.46a.68.68 0 001-.14l3.37-4.4a.69.69 0 00-.13-1l-4.73-3.73a.69.69 0 00-1.04.14zM982.14 630.99l-3.32 4.68a.69.69 0 00.16.95l4.68 3.46a.69.69 0 001-.14l3.36-4.4a.68.68 0 00-.12-1l-4.73-3.73a.7.7 0 00-1.03.18zM989.79 636.27l-3.52 5a.52.52 0 00.11.71l5 3.67a.51.51 0 00.71-.11l3.57-4.67a.52.52 0 00-.09-.72l-5-4a.52.52 0 00-.78.12zM910.89 568.37l-3 4.29a1.1 1.1 0 00.26 1.53l11.75 8.36a1.1 1.1 0 001.51-.23l3.2-4.17a1.09 1.09 0 00-.24-1.56l-11.93-8.48a1.1 1.1 0 00-1.55.26zM987.83 622.95l-3.69 5.25a.51.51 0 00.12.71l12.69 9a.51.51 0 00.7-.11l3.91-5.1a.51.51 0 00-.11-.73l-12.9-9.17a.51.51 0 00-.72.15zM936.47 598.15l-3.55 4.88a.53.53 0 00.11.72l27.5 20.28a.51.51 0 00.71-.11l3.88-5.09a.51.51 0 00-.11-.73l-27.82-20.06a.51.51 0 00-.72.11z" fill="#464A5F"/><path d="M920.35 603.79l-15.56 21.53a2.79 2.79 0 00.6 3.88l40.16 29.69a2.8 2.8 0 003.92-.6l16.06-22a2.79 2.79 0 00-.62-3.92l-40.66-29.25a2.8 2.8 0 00-3.9.67z" fill="#000" opacity=".1"/><path d="M920.23 603.05l-15.57 21.52a2.81 2.81 0 00.61 3.89l40.16 29.69a2.8 2.8 0 003.92-.6l16.06-22a2.8 2.8 0 00-.63-3.92l-40.65-29.25a2.8 2.8 0 00-3.9.67z" fill="#939498"/><path d="M922.24 503.22l.67 33.67 101.43 72.67-.9-33.35a5.84 5.84 0 00-2.38-4.58l-97-69.38a1.16 1.16 0 00-1.82.97z" fill="#6C63FF"/></g><g transform="translate(909 105)"><path d="M54.35 46.25c-7.738-3.577-16.91-.205-20.49 7.532-3.58 7.737-.212 16.911 7.523 20.494 7.736 3.582 16.911.218 20.497-7.516 3.584-7.743.213-16.925-7.53-20.51zm-10.51 22.7a9.57 9.57 0 1112.7-4.66 9.56 9.56 0 01-12.7 4.66z" fill="#F0CBC6"/><path d="M35.25 6.63L6.52 26.84A14.07 14.07 0 00.45 38.35c0 7.26 3.31 18.16 19.15 28a14.33 14.33 0 0015.51-.25l28-18.73L35.25 6.63z" fill="#F0CBC6"/><path d="M67 45.89c-4.61 3.83-15.54-1.78-24.43-12.52S30.2 10.84 34.81 7.02c4.61-3.82 15.56 1.79 24.45 12.52.56.69 1.12 1.38 1.63 2.07l.58.79a41.19 41.19 0 017.12 14.43c.1.48.2.95.26 1.41.53 3.39-.03 6.16-1.85 7.65z" fill="#F0CBC6"/><ellipse fill="#F9FAFB" transform="rotate(-39.63 50.907 26.425)" cx="50.907" cy="26.425" rx="8.76" ry="20.41"/><path d="M64.85 41.04c-.07.13-.15.25-.22.37a4 4 0 01-.71.76c-2.27 1.89-6.45.94-11-2l-.47-.32a37.18 37.18 0 01-4.24-3.42 45.86 45.86 0 01-4.06-4.33c-.87-1-1.66-2.09-2.39-3.14a39.16 39.16 0 01-2.85-4.74 1.62 1.62 0 01-.1-.18c-3-5.89-3.51-11.12-.93-13.25 3.73-3.09 12.58 1.45 19.77 10.13.86 1 1.66 2.09 2.38 3.15.16.21.31.43.45.65 4.44 6.57 6.2 13.06 4.37 16.32z" fill="#000" opacity=".1"/><path d="M68.59 36.83a6.41 6.41 0 01-3.28 3.08l-.46.16c-.326.1-.66.167-1 .2a8.33 8.33 0 01-3.51-.41c-4.72-1.49-6.9-1.46-7.89-1a37.18 37.18 0 01-4.24-3.42 45.86 45.86 0 01-4.06-4.33c-.87-1-1.66-2.09-2.39-3.14a39.16 39.16 0 01-2.85-4.74c4.77 1.9 14.07 5.26 17.2 3.83a9.78 9.78 0 003.6-3.48l.31-.48.13-.21c.25-.41.5-.81.72-1.23 4.04 5.27 6.71 10.69 7.72 15.17z" fill="#000" opacity=".1"/><path d="M68.85 38.24a6.46 6.46 0 01-4 3.77 5 5 0 01-1 .2 8.33 8.33 0 01-3.51-.41c-3.41-1.07-5.5-1.36-6.76-1.27a3.3 3.3 0 00-1.13.24 37.18 37.18 0 01-4.24-3.42 45.86 45.86 0 01-4.06-4.33c-.87-1-1.66-2.09-2.39-3.14a38.4 38.4 0 01-2.85-4.74c.21.09.42.18.66.26 4.93 1.94 13.55 4.93 16.54 3.58a9.83 9.83 0 003.61-3.51l.31-.48.13-.21c.07-.1.133-.203.19-.31a23 23 0 001.11-2.07 41.19 41.19 0 017.12 14.43c.11.48.21.95.27 1.41z" fill="#000" opacity=".1"/><path d="M80.27 6.96a14.17 14.17 0 01-3.7 2.12 12 12 0 00-7.12 13.64l.06.25c1.63 6.87.92 16.47-4.66 18.07-.326.1-.66.167-1 .2a8.33 8.33 0 01-3.51-.41c-4.72-1.49-6.9-1.46-7.89-1a37.18 37.18 0 01-4.24-3.42 45.86 45.86 0 01-4.06-4.33c-.87-1-1.66-2.09-2.39-3.14a39.16 39.16 0 01-2.85-4.74c4.77 1.9 14.07 5.26 17.2 3.84a9.83 9.83 0 003.61-3.51l.31-.48.13-.21a24.19 24.19 0 003.57-11.21C64.1 7.23 66.49-2.15 78.89.79a3.51 3.51 0 011.38 6.17z" fill="#59393C"/></g><g transform="translate(0 -1)"><path d="M323.83 30.66c29.21-26 75.06-31.33 116.8-29.26 131.09 6.52 249.42 69.8 351.78 141.39 37.06 25.91 73.54 53.84 97.59 89.53 49 72.65 34.44 173.29-33.64 233.14-23.17 20.36-51.25 36-80.08 49.81-51.26 24.6-106.57 44.35-164.75 50-41.48 4-83.48.75-124.73-4.84-115.23-15.66-228.32-50.22-323.15-109.34-41.58-25.93-80.77-58.17-97.91-100.1-17.14-41.93-6.17-95.13 36.29-120 17.56-10.27 38.56-14.91 59.11-19.27 30.26-6.41 61-12.73 88.3-25.76 28.21-13.46 61.6-39.49 56-69.29-5.96-31.93-10.78-60.01 18.39-86.01z" fill="#6C63FF" opacity=".1"/><path d="M684.95 669.89s25.06-44.39 62.79-57.18a77.24 77.24 0 0039.12-29.26 129.52 129.52 0 0011.54-20.76" stroke="#535461"/><path d="M822.14 554.48c-4.3 4.18-24.33 8.49-24.33 8.49s4.91-19.89 9.21-24.06c4.3-4.175 11.17-4.075 15.345.225 4.175 4.3 4.075 11.17-.225 15.345zM810.81 590.47c-5.88 1.17-25-6.09-25-6.09s14.94-14 20.81-15.2c5.88-1.168 11.592 2.65 12.76 8.53 1.168 5.88-2.65 11.592-8.53 12.76h-.04zM769.56 629.41c-5.67-2-18.54-17.9-18.54-17.9s20-4.56 25.64-2.6a10.85 10.85 0 11-7.1 20.5zM731.71 651.85c-5.91-1-21.29-14.51-21.29-14.51s18.91-7.88 24.82-6.9a10.85 10.85 0 11-3.53 21.41zM769.07 568.84c0 6 10.84 23.37 10.84 23.37s10.86-17.37 10.86-23.36c0-5.992-4.858-10.85-10.85-10.85s-10.85 4.858-10.85 10.85v-.01zM725.14 595.64c1.8 5.72 17.34 19.06 17.34 19.06s5.16-19.83 3.37-25.55c-1.792-5.719-7.881-8.902-13.6-7.11-5.719 1.792-8.902 7.881-7.11 13.6zM686.02 627.54c.8 5.94 13.87 21.72 13.87 21.72s8.44-18.67 7.64-24.61c-.798-5.94-6.26-10.108-12.2-9.31-5.94.798-10.108 6.26-9.31 12.2z" fill="#6C63FF"/><path d="M822.14 554.48c-4.3 4.18-24.33 8.49-24.33 8.49s4.91-19.89 9.21-24.06c4.3-4.175 11.17-4.075 15.345.225 4.175 4.3 4.075 11.17-.225 15.345zM810.81 590.47c-5.88 1.17-25-6.09-25-6.09s14.94-14 20.81-15.2c5.88-1.168 11.592 2.65 12.76 8.53 1.168 5.88-2.65 11.592-8.53 12.76h-.04zM769.56 629.41c-5.67-2-18.54-17.9-18.54-17.9s20-4.56 25.64-2.6a10.85 10.85 0 11-7.1 20.5zM731.71 651.85c-5.91-1-21.29-14.51-21.29-14.51s18.91-7.88 24.82-6.9a10.85 10.85 0 11-3.53 21.41zM769.07 568.84c0 6 10.84 23.37 10.84 23.37s10.86-17.37 10.86-23.36c0-5.992-4.858-10.85-10.85-10.85s-10.85 4.858-10.85 10.85v-.01zM725.14 595.64c1.8 5.72 17.34 19.06 17.34 19.06s5.16-19.83 3.37-25.55c-1.792-5.719-7.881-8.902-13.6-7.11-5.719 1.792-8.902 7.881-7.11 13.6zM686.02 627.54c.8 5.94 13.87 21.72 13.87 21.72s8.44-18.67 7.64-24.61c-.798-5.94-6.26-10.108-12.2-9.31-5.94.798-10.108 6.26-9.31 12.2z" fill="#000" opacity=".25"/><path d="M686.39 668.99s4.92-50.74 34.24-77.72a77.24 77.24 0 0023.9-42.61 129.163 129.163 0 002.14-23.67" stroke="#535461"/><path d="M765.04 507.91c-2.24 5.56-18.8 17.62-18.8 17.62s-3.56-20.18-1.32-25.73a10.85 10.85 0 1120.12 8.11zM769.27 545.4c-4.9 3.45-25.36 4.57-25.36 4.57s8-18.87 12.87-22.32a10.852 10.852 0 1112.49 17.75zM747.34 597.72c-6 .5-24.2-8.86-24.2-8.86s16.41-12.26 22.34-12.77c5.973-.503 11.222 3.932 11.725 9.905.503 5.973-3.932 11.222-9.905 11.725h.04zM721.83 633.57c-5.8 1.5-25.34-4.64-25.34-4.64s14.09-14.87 19.89-16.37a10.85 10.85 0 115.45 21v.01zM722.35 542.53c2.42 5.48 19.38 17 19.38 17s2.89-20.28.46-25.76c-2.496-5.358-8.821-7.732-14.226-5.34-5.405 2.392-7.901 8.67-5.614 14.12v-.02zM693.05 584.84c3.95 4.5 23.57 10.4 23.57 10.4s-3.31-20.22-7.27-24.72a10.85 10.85 0 10-16.3 14.32zM670.21 629.86c3.14 5.11 21.48 14.23 21.48 14.23s.15-20.48-3-25.59a10.85 10.85 0 10-18.49 11.36h.01z" fill="#6C63FF"/><path fill="#000" opacity=".1" d="M616.05 399.03l-.11 3.89h-12.55l.11-4.49z"/><circle fill="#000" opacity=".1" cx="608.28" cy="104.61" r="4.18"/><path fill="#000" opacity=".1" d="M599.77 393.2h21.07v3.29h-21.07zM388.13 521.99s16.44 0 24.06.45c7.62.45-24.06-.45-24.06-.45z"/><ellipse fill="#6C63FF" opacity=".1" cx="90.82" cy="764.14" rx="44.18" ry="8.64"/><ellipse fill="#6C63FF" opacity=".1" cx="827.28" cy="707.15" rx="32.18" ry="6.29"/><ellipse fill="#6C63FF" opacity=".1" cx="966.77" cy="732.64" rx="32.18" ry="6.29"/><ellipse fill="#6C63FF" opacity=".1" cx="750.78" cy="785.14" rx="32.18" ry="6.29"/><path d="M132.57 524.3s7.24 9.47-3.34 23.75-19.29 26.34-15.75 35.25c0 0 15.95-26.53 28.94-26.9 12.99-.37 4.44-16.14-9.85-32.1z" fill="#6C63FF"/><path d="M132.57 524.3a11.79 11.79 0 011.48 3c12.67 14.89 19.42 28.78 7.24 29.13-11.34.32-24.95 20.61-28.21 25.73.104.398.235.789.39 1.17 0 0 15.95-26.53 28.94-26.9 12.99-.37 4.45-16.17-9.84-32.13z" fill="#000" opacity=".1"/><path d="M146.02 536.36c0 3.33-.37 6-.83 6-.46 0-.84-2.7-.84-6s.47-1.76.93-1.76c.46 0 .74-1.61.74 1.76z" fill="#FFD037"/><path d="M150.64 540.34c-2.92 1.59-5.47 2.56-5.69 2.15-.22-.41 2-2 4.89-3.62 2.89-1.62 1.77-.43 2 0 .23.43 1.72-.13-1.2 1.47z" fill="#FFD037"/><path d="M94.36 524.3s-7.24 9.47 3.34 23.75 19.29 26.34 15.78 35.25c0 0-16-26.53-29-26.9-13-.37-4.41-16.14 9.88-32.1z" fill="#6C63FF"/><path d="M94.36 524.3a11.79 11.79 0 00-1.48 3c-12.67 14.89-19.42 28.78-7.24 29.13 11.34.32 25 20.61 28.21 25.73a11.41 11.41 0 01-.38 1.17s-16-26.53-29-26.9c-13-.37-4.4-16.17 9.89-32.13z" fill="#000" opacity=".1"/><path d="M80.91 536.36c0 3.33.37 6 .83 6 .46 0 .84-2.7.84-6s-.47-1.76-.93-1.76c-.46 0-.74-1.61-.74 1.76z" fill="#FFD037"/><path d="M76.29 540.34c2.93 1.59 5.47 2.56 5.7 2.15.23-.41-2-2-4.9-3.62-2.9-1.62-1.77-.43-2 0-.23.43-1.72-.13 1.2 1.47z" fill="#FFD037"/><ellipse fill="#6C63FF" opacity=".1" cx="113.46" cy="644.07" rx="75.65" ry="11.61"/><path d="M152.4 570.55l-.36 3-.51 4.17-.21 1.74-.51 4.18-.22 1.74-.51 4.17-5.78 47.44c-.52 4.24-7.44 7.54-15.8 7.54H98.48c-8.36 0-15.27-3.3-15.79-7.54l-5.79-47.45-.51-4.17-.21-1.74-.52-4.18-.21-1.74-.51-4.17-.36-3c-.29-2.4 3.45-4.42 8.18-4.42h61.52c4.67.01 8.42 2.03 8.12 4.43z" fill="#65617D"/><path fill="#9D9CB5" d="M152.03 573.5l-.5 4.18H75.39l-.5-4.18zM151.31 579.42l-.5 4.17H76.12l-.51-4.17zM150.59 585.33l-.51 4.17H76.84l-.51-4.17z"/><circle fill="#6C63FF" opacity=".1" cx="179.99" cy="125.52" r="31.5"/><circle fill="#6C63FF" opacity=".1" cx="113.99" cy="50.52" r="19.5"/><circle fill="#6C63FF" opacity=".1" cx="12" cy="94.02" r="12"/></g><g transform="translate(358 50)"><ellipse fill="#6C63FF" opacity=".1" cx="142.16" cy="639.06" rx="118.88" ry="19.93"/><path fill="#B77B7F" d="M150.05 376.03l-.11 3.89-6.76 238.52h-11.36l5.57-238.52.11-4.49z"/><path fill="#DDA2A6" d="M215.82 578.09l-8.51-.02-126.44-.27-6.74-.01 3.59-11.06h137.2z"/><path fill="#DDA2A6" d="M100.14 370.05l-.35 3.44-28.05 276.64-12.85-.61 29.56-276.03.33-3.14zM229.27 649.52l-12.86.61-28.04-276.64-.35-3.44 11.35.3.33 3.14zM147.81 6.43v65.61h-11.05V6.43a5.53 5.53 0 1111.05 0zM124.35 91.32h35.87v5.98h-35.87z"/><path d="M69.72 362h150.65a6.5 6.5 0 016.5 6.5v1.42H63.22v-1.42a6.5 6.5 0 016.5-6.5z" fill="#000" opacity=".1"/><path fill="#FFF" d="M.6 97.3h283.36V369H.6z"/><path d="M152.15 70.55v21.66h-19.67V70.55a2.68 2.68 0 012.69-2.69h14.31a2.69 2.69 0 012.67 2.69z" fill="#DDA2A6"/><path d="M187.437 364.079l-72.405-.652a6.44 6.44 0 01-6.391-6.512 6.45 6.45 0 016.503-6.394l72.406.65 13.051 6.574-13.164 6.334z" fill="#BE8B87"/><path d="M109.835 359.526a6.46 6.46 0 016.507-6.404l72.405.652 9.791 4.936 2.074-.993-13.051-6.573-72.406-.651a6.45 6.45 0 00-6.503 6.394 6.43 6.43 0 001.307 3.961 6.28 6.28 0 01-.124-1.322z" fill="#FFF" opacity=".1"/><path fill="#EFC8C4" d="M187.428 364.075l.113-12.907 10.707 5.396 2.344 1.178-4.678 2.253z"/><path d="M195.914 359.995a2.62 2.62 0 01-.372-.957 1.09 1.09 0 01.423-1.101 2.77 2.77 0 01.775-.206 2.18 2.18 0 001.518-1.164l2.343 1.178-4.687 2.25z" fill="#727A9C"/><path fill="#B77B7F" d="M133.77 370.2h21.07v7.93h-21.07z"/><path fill="#000" opacity=".1" d="M81.99 566.73l-1.12 11.07-6.74-.01 3.59-11.06zM215.82 578.09l-8.51-.02-1.15-11.34h8.76zM136.75 66.07h11.06v5.97h-11.06z"/><circle fill="#B77B7F" cx="142.28" cy="80.71" r="4.18"/><path fill="#000" opacity=".1" d="M132.42 89.53h19.73v2.69h-19.73zM124.35 93.12h35.87v5.98h-35.87zM88.78 370.35l11.36-.3-.35 3.44H88.45zM199.7 373.49h-11.33l-.35-3.44 11.35.3z"/><path d="M69.72 363.77h150.65a6.5 6.5 0 016.5 6.5v1.42H63.22v-1.42a6.5 6.5 0 016.5-6.5z" fill="#DDA2A6"/></g><g opacity=".3" transform="translate(880 273)"><path d="M66.06 67.88H3.61a3.27 3.27 0 00-3.26 3.26v39.49a3.28 3.28 0 003.26 3.27h49s1.27 6.73-2.9 7.46c0 0 9.34.67 7.71-7.46h8.64a3.28 3.28 0 003.27-3.27V71.14a3.28 3.28 0 00-3.27-3.26z" fill="#000"/><rect fill="#000" x="9.55" y="78.35" width="50.58" height="3.08" rx="1.39"/><rect fill="#000" x="9.55" y="92.13" width="50.58" height="3.08" rx="1.39"/><rect fill="#000" x="9.55" y="99.02" width="42.42" height="3.08" rx="1.39"/><rect fill="#000" x="9.55" y="85.24" width="21.93" height="3.08" rx="1.39"/><path d="M66.6 67.63H4.16a3.27 3.27 0 00-3.27 3.26v39.45a3.27 3.27 0 003.27 3.29h49s1.27 6.74-2.9 7.46c0 0 9.33.67 7.7-7.46h8.66a3.27 3.27 0 003.26-3.26v-39.5a3.27 3.27 0 00-3.28-3.24z" fill="#F9FAFB"/><rect fill="#6C63FF" x="10.09" y="78.08" width="50.58" height="3.08" rx="1.39"/><rect fill="#6C63FF" x="10.09" y="91.86" width="50.58" height="3.08" rx="1.39"/><rect fill="#6C63FF" x="10.09" y="98.74" width="42.42" height="3.08" rx="1.39"/><rect fill="#6C63FF" x="10.09" y="84.97" width="21.93" height="3.08" rx="1.39"/><path d="M126.34.63h-75.1a3.93 3.93 0 00-3.92 4v47.4a3.93 3.93 0 003.92 3.93h58.92s1.52 8.1-3.49 9c0 0 11.23.8 9.26-9h10.41a3.94 3.94 0 003.93-3.93V4.63a3.93 3.93 0 00-3.93-4z" fill="#000"/><rect fill="#000" x="58.38" y="13.25" width="60.84" height="3.71" rx="1.67"/><rect fill="#000" x="58.38" y="29.82" width="50.2" height="3.71" rx="1.67"/><rect fill="#000" x="58.38" y="21.54" width="36.14" height="3.71" rx="1.67"/><path d="M127.32 0h-75.1a3.93 3.93 0 00-3.92 3.93v47.45a3.93 3.93 0 003.92 3.92h58.92s1.52 8.1-3.49 9c0 0 11.23.81 9.27-9h10.4a3.94 3.94 0 003.93-3.92V3.93A3.94 3.94 0 00127.32 0z" fill="#F9FAFB"/><rect fill="#6C63FF" x="59.36" y="12.6" width="60.84" height="3.71" rx="1.67"/><rect fill="#6C63FF" x="59.36" y="29.17" width="50.2" height="3.71" rx="1.67"/><rect fill="#6C63FF" x="59.36" y="20.88" width="36.14" height="3.71" rx="1.67"/></g><g transform="translate(268 620)"><ellipse fill="#6C63FF" opacity=".1" cx="30.02" cy="33.59" rx="29.92" ry="5.06"/><path d="M9.92 10.09s17.07-.53 22.21-4.19c5.14-3.66 26.25-8 27.53-2.16 1.28 5.84 25.65 29.21 6.38 29.37-19.27.16-44.77-3-49.91-6.13-5.14-3.13-6.21-16.89-6.21-16.89z" fill="#A8A8A8"/><path d="M66.38 31.06c-19.27.16-44.77-3-49.9-6.13-3.91-2.38-5.47-10.92-6-14.87h-.57s1.08 13.76 6.21 16.89c5.13 3.13 30.64 6.28 49.91 6.13 5.56-.05 7.48-2 7.38-5-.76 1.84-2.89 2.95-7.03 2.98z" fill="#000" opacity=".2"/></g></g></svg>