<?xml version="1.0" encoding="UTF-8"?><svg viewBox="0 0 850 795" xmlns="http://www.w3.org/2000/svg"><defs><linearGradient x1="50.002%" y1="100%" x2="50.002%" y2=".005%" id="a"><stop stop-color="gray" stop-opacity=".25" offset="0%"/><stop stop-color="gray" stop-opacity=".12" offset="54%"/><stop stop-color="gray" stop-opacity=".1" offset="100%"/></linearGradient><linearGradient x1="49.978%" y1="0%" x2="49.978%" y2="100.016%" id="b"><stop stop-color="#E0E0E0" offset="0%"/><stop stop-color="#FCCC63" offset="31%"/><stop stop-color="#F55F44" offset="77%"/></linearGradient><linearGradient x1="50.022%" y1="0%" x2="50.022%" y2="100.016%" id="c"><stop stop-color="#E0E0E0" offset="0%"/><stop stop-color="#FCCC63" offset="31%"/><stop stop-color="#F55F44" offset="77%"/></linearGradient><linearGradient x1="50.002%" y1="100.027%" x2="50.002%" y2=".009%" id="d"><stop stop-color="gray" stop-opacity=".25" offset="0%"/><stop stop-color="gray" stop-opacity=".12" offset="54%"/><stop stop-color="gray" stop-opacity=".1" offset="100%"/></linearGradient><linearGradient x1="50%" y1="0%" x2="50%" y2="100%" id="e"><stop stop-color="#F2F2F2" offset="0%"/><stop stop-color="#E6E6E6" offset="31%"/><stop stop-color="#CCC" offset="77%"/></linearGradient><linearGradient x1="50%" y1="0%" x2="50%" y2="77%" id="f"><stop stop-color="#F2F2F2" offset="0%"/><stop stop-color="#E6E6E6" offset="31%"/><stop stop-color="#CCC" offset="100%"/></linearGradient><linearGradient x1="50.002%" y1="-.053%" x2="50.002%" y2="73.631%" id="g"><stop stop-color="#F2F2F2" offset="0%"/><stop stop-color="#E6E6E6" offset="31%"/><stop stop-color="#CCC" stop-opacity=".889" offset="100%"/></linearGradient><linearGradient x1="50%" y1="100%" x2="50%" y2="0%" id="h"><stop stop-color="gray" stop-opacity=".25" offset="0%"/><stop stop-color="gray" stop-opacity=".12" offset="54%"/><stop stop-color="gray" stop-opacity=".1" offset="100%"/></linearGradient><linearGradient x1="50%" y1="100%" x2="50%" y2=".034%" id="i"><stop stop-color="gray" stop-opacity=".25" offset="0%"/><stop stop-color="gray" stop-opacity=".12" offset="54%"/><stop stop-color="gray" stop-opacity=".1" offset="100%"/></linearGradient><linearGradient x1="50%" y1="0%" x2="50%" y2="100%" id="j"><stop stop-color="#F2F2F2" offset="0%"/><stop stop-color="#E0E0E0" offset="31%"/><stop stop-color="#B3B3B3" offset="77%"/></linearGradient><linearGradient x1="50%" y1="0%" x2="50%" y2="100.033%" id="k"><stop stop-color="#F2F2F2" offset="0%"/><stop stop-color="#E6E6E6" offset="31%"/><stop stop-color="#CCC" offset="77%"/></linearGradient><linearGradient x1="49.954%" y1="99.943%" x2="49.954%" y2="-.057%" id="l"><stop stop-color="gray" stop-opacity=".25" offset="0%"/><stop stop-color="gray" stop-opacity=".12" offset="54%"/><stop stop-color="gray" stop-opacity=".1" offset="100%"/></linearGradient><linearGradient x1="50.072%" y1="100.095%" x2="50.072%" y2=".096%" id="m"><stop stop-color="gray" stop-opacity=".25" offset="0%"/><stop stop-color="gray" stop-opacity=".12" offset="54%"/><stop stop-color="gray" stop-opacity=".1" offset="100%"/></linearGradient></defs><g fill="none"><path d="M283.59 298.63a150.57 150.57 0 00-17-70c-5.34-10.15-10.21-16.46-14-20.33a10 10 0 00-11.4-2.25 10.28 10.28 0 00-4 2.58c-5.07 5.25-9.65 12.19-13.65 19.58a151.15 151.15 0 00-17.87 71.92v15.06h-9.66v-175c0-36.68-8.21-72.87-24.29-105-7.62-15.21-14.57-24.66-19.92-30.47a13.81 13.81 0 00-20.76 0c-7.24 7.87-13.77 18.27-19.48 29.33-16.91 32.79-25.5 70-25.5 107.77v173.37h-8.35v-15.78a151.15 151.15 0 00-17.87-71.92c-4-7.38-8.58-14.32-13.65-19.58a10 10 0 00-11.6-2.12l.35.19a10.31 10.31 0 00-3.26 2.28c-3.75 3.87-8.62 10.18-14 20.33a150.57 150.57 0 00-17 70v261.64h29.8l-3.25 21.51v64.31h24.36v-64.31l-3.25-21.51h29.37V321.96h8.35v237.2h23.8l-3.42 22.57v64.32h24.37v-64.31l-3.42-22.57h32.07l-3.42 22.57v64.31h24.37v-64.31l-3.42-22.57h19V321.96h9.66v238.63h7.83v-.36h25.89l-3.25 21.51v64.31h24.37v-64.31l-3.25-21.51h26.35v-261.6z" opacity=".7" transform="translate(301 48)" fill="url(#a)"/><path fill="#535461" d="M357.44 617.2h-23.07l4.12-28.01h14.83z"/><path d="M337.34 600.31h17.13l-1.15-7.83h-14.83z" opacity=".1" fill="#000"/><path fill="#535461" d="M555.2 617.2h-23.07l4.12-28.01h14.83z"/><path d="M535.1 600.31h17.13l-1.15-7.83h-14.83z" opacity=".1" fill="#000"/><path fill="#535461" d="M432.43 617.2h-23.08l4.12-28.01h14.84z"/><path d="M412.32 600.31h17.14l-1.15-7.83h-14.84z" opacity=".1" fill="#000"/><path fill="#535461" d="M479.39 617.2h-23.07l4.12-28.01h14.83z"/><path d="M459.29 600.31h17.14l-1.16-7.83h-14.83z" opacity=".1" fill="#000"/><path fill="#535461" d="M357.44 357.64h164.8v6.59h-164.8z"/><path d="M547.72 253.51a9.29 9.29 0 00-13.77 0c-4.8 5.11-9.13 11.87-12.92 19.06a150.58 150.58 0 00-16.91 70v253.69h72.93V341.52a150 150 0 00-16.11-68.21c-5.06-9.88-9.67-16.03-13.22-19.8zM338.59 253.51a9.29 9.29 0 0113.77 0c4.8 5.11 9.13 11.87 12.92 19.06a150.58 150.58 0 0116.91 70v253.69h-72.95V341.52a150 150 0 0116.11-68.21c5.05-9.88 9.66-16.03 13.24-19.8z" fill="#EAEAEA"/><path fill="#535461" d="M309.65 346.93l17.3.08v21.34h-17.3zM364.86 346.93l17.3.08v21.34h-17.3zM504.11 346.93l17.31.08v21.34h-17.31zM559.32 346.93l17.31.08v21.34h-17.31z"/><path d="M365.25 272.24c-3.78-7.19-8.12-13.95-12.92-19.06a9.26 9.26 0 00-11-2.07 9.83 9.83 0 012.78 2.07c4.8 5.11 9.13 11.87 12.92 19.06a150.58 150.58 0 0116.91 70v253.67h8.24V342.27a150.58 150.58 0 00-16.93-70.03zM527.062 273.133c3.74-7.195 8.033-13.959 12.782-19.072a9.699 9.699 0 013.156-2.282 9.1 9.1 0 00-10.487 2.282c-4.749 5.113-9.032 11.877-12.782 19.072a152.063 152.063 0 00-16.73 70.042V597h7.341V343.215a152.064 152.064 0 0116.72-70.082z" opacity=".1" fill="#000"/><path fill="url(#b)" d="M334.37 617.2h23.07v62.62h-23.07z"/><path fill="url(#c)" d="M409.35 617.2h23.07v62.62h-23.07zM456.32 617.2h23.07v62.62h-23.07zM532.13 617.2h23.07v62.62h-23.07z"/><path d="M452.29 54.61a12.84 12.84 0 00-19.65 0c-6.85 7.66-13 17.79-18.44 28.57-16 31.94-24.14 68.19-24.14 104.95v407.09h104.09V186.49c0-35.72-7.77-71-23-102.21-7.21-14.81-13.79-24.01-18.86-29.67z" fill="#EEE"/><rect fill="#4B49FF" x="414.23" y="99.83" width="54.31" height="24.89" rx="11"/><path d="M533.59 90.98c-7.083-42.709-45.803-72.8-88.939-69.119-43.135 3.681-76.196 39.898-75.941 83.189v1.22a76.61 76.61 0 00-9.1 1.95c-7.851-31.268-34.612-54.154-66.718-57.061-32.107-2.907-62.543 14.802-75.882 44.151a75 75 0 00-20.92-4.78 82.38 82.38 0 00-5.71-18.85C187.8 32.206 155.3 1.353 115.744.83 76.19.306 42.884 30.288 39.26 69.68a82.45 82.45 0 00-7.42 26.37C5.769 106.897-6.573 136.825 4.275 162.896a51.129 51.129 0 0045.13 31.447c12.541.509 20.073.728 22.595.657 29.381-.829 51.795-1.63 61 1 21 6 48.184 16.87 60 17 28.508.315 40.077-11.385 61-14 16-2 23.963 5.108 34.62 5 16.87-.171 29.119-5.403 36.38-5 8.824.49 18.55 2.242 29.176 5.256a100 100 0 0023.243 3.712c.23.01.423.02.581.032 3.313-.368 11.902.265 21.451-1.943C417 202 423.038 198.981 431 195c4-2 14.515-3.497 22-2 5 1 10.075 2.877 23 3 5.876.056 22.934-.448 51.175-1.512 28.235-1.064 50.262-24.816 49.198-53.051A51.16 51.16 0 00573 125c-7.285-18.943-17.424-31.01-39.41-34.02z" opacity=".7" transform="translate(151 582)" fill="url(#d)"/><circle fill="url(#e)" cx="272.71" cy="659.35" r="72.83"/><circle fill="url(#f)" cx="272.35" cy="686.66" r="79.75"/><circle fill="url(#e)" cx="596.45" cy="686.66" r="79.75"/><circle fill="url(#f)" cx="592.44" cy="693.58" r="72.83"/><path d="M480.02 766.42c-19.605 5.72-33.855 8.58-42.748 8.58-10.091 0-24.319-2.86-42.682-8.58-27.905-20.169-37.882-57.118-23.923-88.591 13.96-31.474 48.045-48.88 81.726-41.733 33.68 7.146 57.761 36.894 57.737 71.324a72.664 72.664 0 01-30.11 59z" fill="url(#f)"/><path d="M563.157 777.222c-15.775 9.308-40.045 5.413-57.033.11-16.99-5.303-27.91-24.719-29.124-40.494 0-21.843 6.067-49.753 43.685-54.607 4.386-.566 9.648-1.359 14.065-1.214 36.902 1.214 50.25 30.315 50.25 50.956 0 20.64-6.067 35.942-21.843 45.25zM375.601 782.784c-14.391 8.491-39.854 5.21-52.032.781-5.408-1.967-11.924-7.293-16.605-13.285-5.86-7.5-9.349-16.339-9.964-24.34 0-19.926 5.535-45.389 39.854-49.817 4.001-.516 8.802-1.24 12.831-1.107 33.666 1.107 45.844 27.656 45.844 46.486s-5.536 32.79-19.928 41.282zM670 768c-9.954 0-23.618.824-40.99 2.472-18.007 1.707-33.99-11.506-35.697-29.513a32.751 32.751 0 01.407-9.089c.12-.63.24-1.27.38-1.89 7.231-33.552 36.898-57.508 71.22-57.51 2.29 0 4.54.1 6.77.32 1 .08 2 .2 3 .33 5.06.688 10.72 2.69 16.98 6.002 23.029 12.189 31.817 40.739 19.629 63.768A47.179 47.179 0 01670 768zM272.302 761c8.302-11 18.548-49.032 0-67.433a72.88 72.88 0 00-70.712-18.517 69.46 69.46 0 00-8.51 2.94c-24.299 10.11-35.802 38.002-25.693 62.301a47.653 47.653 0 0044.136 29.349c36.252-.106 56.512-2.986 60.78-8.64z" fill="url(#g)"/><circle cx="13.43" cy="14.27" r="13.36" opacity=".7" transform="translate(697 589)" fill="url(#h)"/><circle fill="url(#e)" cx="710.43" cy="603.27" r="12.38"/><circle cx="14.61" cy="15.18" r="14.57" opacity=".7" transform="translate(757 717)" fill="url(#i)"/><circle fill="url(#j)" cx="771.61" cy="732.18" r="13.84"/><circle cx="16.17" cy="16.15" r="16.01" opacity=".7" transform="translate(132 633)" fill="url(#h)"/><circle fill="url(#k)" cx="148.17" cy="649.15" r="15.29"/><path d="M79.32 17.47A44.33 44.33 0 0066.24 5.89a43.92 43.92 0 10-22 82c.93 0 1.86 0 2.78-.09A43.91 43.91 0 0079.3 17.52l.02-.05z" opacity=".4" transform="translate(672)" fill="url(#l)"/><path d="M757.77 43.92c.002 21.906-17.019 40.042-38.88 41.43-.87.06-1.75.09-2.63.09a41.51 41.51 0 1120.76-77.47 41.9 41.9 0 0112.37 10.95 41.3 41.3 0 018.38 25z" fill="#6C63FF" opacity=".2"/><path d="M706.04 17.59a45.19 45.19 0 00-6.19 3.26 9.8 9.8 0 00-3.31 3 3.9 3.9 0 00-.08 4.23c1 1.38 3 1.6 4.67 1.69a8.86 8.86 0 008.48-2.8l3.57-3.24c1.24-1.12 2.6-2.67 2.06-4.25-.41-1.21-1.77-1.8-3-2a12.59 12.59 0 00-8.93 1.57" fill="#F55F44" opacity=".05"/><circle fill="#F55F44" opacity=".05" cx="691.13" cy="60.31" r="2.18"/><circle fill="#F55F44" opacity=".05" cx="735.56" cy="46.47" r="8.01"/><path d="M749.4 18.91a10.93 10.93 0 11-12.37-11 41.9 41.9 0 0112.37 11zM750.2 67.83a41.41 41.41 0 01-31.31 17.52c-.05-.57-.08-1.15-.08-1.73a19.67 19.67 0 0131.39-15.79z" fill="#F55F44" opacity=".05"/><circle fill="#535461" opacity=".25" cx="722.81" cy="344.72" r="5.1"/><circle fill="#535461" opacity=".25" cx="42.81" cy="478.72" r="5.1"/><circle fill="#535461" opacity=".25" cx="288.73" cy="266.06" r="5.1"/><circle fill="#535461" opacity=".25" cx="271.98" cy="148.8" r="5.1"/><circle fill="#535461" opacity=".25" cx="127.77" cy="381.13" r="5.1"/><path fill="#535461" opacity=".25" d="M849.18 387.12h-4.54v-4.53h-1.85v4.53h-4.54v1.86h4.54v4.53h1.85v-4.53h4.54zM601.55 142.41h-4.54v-4.54h-1.85v4.54h-4.54v1.85h4.54v4.54h1.85v-4.54h4.54zM799.65 361.63h-4.54v-4.53h-1.85v4.53h-4.53v1.86h4.53v4.53h1.85v-4.53h4.54zM633.59 512.39h-4.53v-4.53h-1.85v4.53h-4.54v1.86h4.54v4.53h1.85v-4.53h4.53zM168.93 201.4h-4.54v-4.53h-1.85v4.53H158v1.85h4.54v4.54h1.85v-4.54h4.54zM10.93 260.4H6.39v-4.53H4.54v4.53H0v1.85h4.54v4.54h1.85v-4.54h4.54zM231.56 446.12h-4.54v-4.54h-1.85v4.54h-4.53v1.85h4.53v4.54h1.85v-4.54h4.54z"/><circle fill="url(#e)" cx="771.61" cy="732.18" r="13.84"/><path d="M37.96 9.32a21.11 21.11 0 00-6.23-5.52 20.92 20.92 0 10-10.46 39h1.32A20.92 20.92 0 0037.96 9.33v-.01z" opacity=".4" transform="translate(231 339)" fill="url(#m)"/><path d="M272.03 360.92c0 10.433-8.108 19.07-18.52 19.73h-1.25a19.77 19.77 0 119.89-36.9 20 20 0 015.89 5.21 19.67 19.67 0 013.99 11.96z" fill="#6C63FF" opacity=".2"/><path d="M247.39 348.38a21.52 21.52 0 00-3 1.55 4.67 4.67 0 00-1.58 1.41 1.86 1.86 0 000 2 2.83 2.83 0 002.22.8 4.22 4.22 0 004-1.33l1.7-1.54c.59-.54 1.24-1.27 1-2a1.79 1.79 0 00-1.44-1 6 6 0 00-4.25.75" fill="#F55F44" opacity=".1"/><circle fill="#F55F44" opacity=".1" cx="240.29" cy="368.72" r="1.04"/><circle fill="#F55F44" opacity=".1" cx="261.45" cy="362.13" r="3.82"/><path d="M268.04 349.05a5.2 5.2 0 11-5.89-5.22 20 20 0 015.89 5.22zM268.43 372.31a19.72 19.72 0 01-14.91 8.35v-.83a9.37 9.37 0 0115-7.52h-.09z" fill="#F55F44" opacity=".1"/><path d="M390.59 202.05h103v4h-103z" opacity=".1" fill="#000"/></g></svg>